<?xml version="1.0" standalone="no"?>
<!DOCTYPE svg PUBLIC "-//W3C//DTD SVG 20010904//EN"
 "http://www.w3.org/TR/2001/REC-SVG-20010904/DTD/svg10.dtd">
<svg version="1.0" xmlns="http://www.w3.org/2000/svg"
 width="398.000000pt" height="126.000000pt" viewBox="0 0 398.000000 126.000000"
 preserveAspectRatio="xMidYMid meet">

<g transform="translate(0.000000,126.000000) scale(0.100000,-0.100000)"
fill="#000000" stroke="none">
<path d="M695 1038 c-55 -31 -61 -92 -14 -132 17 -14 41 -26 53 -26 24 0 76
35 76 50 0 5 -12 -2 -26 -15 -33 -30 -63 -32 -98 -4 -72 57 15 167 91 114 12
-8 24 -25 26 -38 4 -22 4 -22 6 0 1 26 -42 63 -73 63 -11 0 -30 -6 -41 -12z"/>
<path d="M430 980 l0 -30 95 0 95 0 0 30 0 30 -95 0 -95 0 0 -30z"/>
<path d="M710 993 c-14 -10 -20 -23 -18 -39 4 -30 21 -27 23 3 0 13 7 28 14
35 11 11 12 7 7 -25 -9 -48 15 -61 47 -26 20 21 20 22 1 6 -29 -24 -34 -21
-23 15 5 18 9 33 9 34 0 1 -9 4 -19 7 -11 3 -29 -2 -41 -10z"/>
<path d="M840 980 l0 -30 95 0 95 0 0 30 0 30 -95 0 -95 0 0 -30z"/>
<path d="M3233 1003 c-10 -3 -13 -48 -13 -174 l0 -169 58 0 c37 0 66 6 81 16
21 15 22 21 17 88 -3 39 -7 102 -8 139 -3 58 -7 72 -27 88 -22 18 -79 24 -108
12z m71 -39 c22 -9 22 -89 0 -98 -38 -14 -44 -7 -44 49 0 56 6 63 44 49z m24
-146 c7 -7 12 -34 12 -60 0 -43 -3 -50 -26 -58 -50 -20 -54 -15 -54 60 l0 70
28 0 c15 0 33 -5 40 -12z"/>
<path d="M3658 1003 c-16 -4 -18 -21 -18 -174 l0 -169 65 0 c103 0 122 37 113
217 -4 79 -7 88 -32 110 -26 22 -79 29 -128 16z m104 -55 c17 -32 16 -211 -1
-232 -8 -9 -26 -16 -42 -16 l-29 0 0 135 0 135 30 0 c20 0 33 -7 42 -22z"/>
<path d="M1422 833 c3 -166 3 -168 26 -171 l22 -3 0 170 0 171 -25 0 -25 0 2
-167z"/>
<path d="M1530 830 c0 -163 1 -170 20 -170 19 0 20 7 20 170 0 163 -1 170 -20
170 -19 0 -20 -7 -20 -170z"/>
<path d="M1630 830 c0 -163 1 -170 20 -170 19 0 20 7 20 170 0 163 -1 170 -20
170 -19 0 -20 -7 -20 -170z"/>
<path d="M1710 980 c0 -16 7 -20 30 -20 l30 0 0 -150 c0 -143 1 -150 20 -150
19 0 20 7 20 149 l0 150 27 3 c17 2 29 10 31 21 3 15 -6 17 -77 17 -74 0 -81
-2 -81 -20z"/>
<path d="M2045 988 c-10 -28 -65 -287 -65 -307 0 -14 6 -21 19 -21 16 0 22 11
31 55 11 51 13 55 41 55 23 0 30 -5 35 -27 14 -64 21 -78 42 -81 25 -4 27 -19
-22 193 -28 125 -34 140 -54 143 -12 2 -24 -3 -27 -10z m35 -90 c0 -7 3 -30 6
-50 6 -35 5 -38 -16 -38 -20 0 -22 4 -16 31 3 17 6 40 6 50 0 11 5 19 10 19 6
0 10 -6 10 -12z"/>
<path d="M2210 831 l0 -171 70 0 c63 0 70 2 70 20 0 17 -7 20 -45 20 l-44 0
-3 148 c-3 144 -3 147 -25 150 l-23 3 0 -170z"/>
<path d="M2390 830 l0 -170 65 0 c58 0 65 2 65 20 0 17 -7 20 -45 20 l-45 0 0
150 c0 143 -1 150 -20 150 -19 0 -20 -7 -20 -170z"/>
<path d="M2615 988 c-10 -28 -65 -287 -65 -307 0 -14 6 -21 19 -21 16 0 22 11
31 55 11 51 13 55 41 55 23 0 30 -5 35 -27 14 -64 21 -78 42 -81 25 -4 27 -19
-22 193 -28 125 -34 140 -54 143 -12 2 -24 -3 -27 -10z m35 -90 c0 -7 3 -30 6
-50 6 -35 5 -38 -16 -38 -20 0 -22 4 -16 31 3 17 6 40 6 50 0 11 5 19 10 19 6
0 10 -6 10 -12z"/>
<path d="M2780 830 c0 -163 1 -170 20 -170 18 0 20 7 20 80 l0 80 40 0 40 0 0
-80 c0 -73 2 -80 20 -80 19 0 20 7 20 170 0 163 -1 170 -20 170 -18 0 -20 -7
-20 -65 l0 -65 -40 0 -40 0 0 65 c0 58 -2 65 -20 65 -19 0 -20 -7 -20 -170z"/>
<path d="M3017 838 c-19 -89 -33 -166 -31 -170 3 -4 14 -8 24 -8 15 0 20 11
27 53 8 49 10 52 40 55 31 3 32 2 43 -52 10 -49 14 -56 35 -56 15 0 23 5 20
13 -2 6 -18 75 -35 152 -40 182 -38 175 -64 175 -21 0 -25 -11 -59 -162z m77
10 c6 -34 5 -38 -14 -38 -22 0 -25 15 -14 70 8 37 18 26 28 -32z"/>
<path d="M3480 997 c0 -2 -16 -74 -35 -160 -19 -86 -35 -161 -35 -167 0 -5 11
-10 24 -10 22 0 25 5 31 55 7 54 8 55 41 55 26 0 34 -4 34 -17 0 -10 5 -35 11
-55 7 -27 15 -38 29 -38 11 0 20 6 20 13 0 7 -16 82 -35 166 -19 83 -35 154
-35 157 0 2 -11 4 -25 4 -14 0 -25 -1 -25 -3z m39 -135 c7 -35 6 -44 -6 -49
-23 -9 -30 9 -21 55 11 51 14 51 27 -6z"/>
<path d="M527 812 l-88 -88 21 -19 c21 -19 21 -18 110 70 84 84 88 90 73 107
-9 10 -19 18 -22 18 -4 0 -46 -40 -94 -88z"/>
<path d="M815 885 c-18 -15 -15 -19 70 -105 49 -50 94 -89 99 -87 5 2 14 11
20 20 9 14 -4 31 -74 102 -46 47 -87 85 -90 85 -3 0 -14 -7 -25 -15z"/>
<path d="M705 848 c-3 -8 -4 -70 -3 -139 l3 -124 25 0 25 0 0 135 c0 132 0
135 -23 138 -12 2 -24 -3 -27 -10z"/>
<path d="M348 653 c6 -2 18 -2 25 0 6 3 1 5 -13 5 -14 0 -19 -2 -12 -5z"/>
<path d="M1098 653 c7 -3 16 -2 19 1 4 3 -2 6 -13 5 -11 0 -14 -3 -6 -6z"/>
<path d="M1050 590 c-13 -8 -12 -10 3 -10 9 0 17 5 17 10 0 12 -1 12 -20 0z"/>
<path d="M388 583 c6 -2 18 -2 25 0 6 3 1 5 -13 5 -14 0 -19 -2 -12 -5z"/>
<path d="M374 533 c15 -4 16 -7 5 -15 -12 -8 -11 -9 1 -5 8 2 23 0 33 -5 9 -5
22 -6 28 -2 11 6 -55 35 -76 33 -5 -1 -1 -4 9 -6z"/>
<path d="M1035 526 c-24 -8 -34 -15 -25 -18 8 -3 23 -1 33 4 9 5 23 6 29 2 6
-4 8 -3 4 4 -3 6 2 13 11 15 12 3 13 5 3 5 -8 0 -33 -6 -55 -12z"/>
<path d="M550 460 c0 -6 7 -10 15 -10 8 0 15 2 15 4 0 2 -7 6 -15 10 -8 3 -15
1 -15 -4z"/>
<path d="M715 460 c3 -5 10 -10 16 -10 5 0 9 5 9 10 0 6 -7 10 -16 10 -8 0
-12 -4 -9 -10z"/>
<path d="M880 460 c-13 -8 -12 -10 3 -10 9 0 17 5 17 10 0 12 -1 12 -20 0z"/>
<path d="M714 421 c4 -5 0 -11 -6 -14 -7 -2 2 -4 20 -5 28 -1 30 1 18 14 -16
15 -41 19 -32 5z"/>
<path d="M570 390 c0 -5 4 -10 9 -10 6 0 13 5 16 10 3 6 -1 10 -9 10 -9 0 -16
-4 -16 -10z"/>
<path d="M865 390 c3 -5 8 -10 11 -10 2 0 4 5 4 10 0 6 -5 10 -11 10 -5 0 -7
-4 -4 -10z"/>
<path d="M365 366 c-9 -14 -15 -33 -13 -43 4 -22 78 -59 136 -68 48 -8 60 10
14 20 -28 6 -73 46 -105 93 l-15 24 -17 -26z"/>
<path d="M1041 344 c-20 -29 -46 -52 -71 -62 -22 -10 -40 -21 -40 -25 0 -25
166 30 177 58 4 11 -22 75 -30 75 -2 0 -18 -21 -36 -46z"/>
<path d="M702 351 c-9 -5 1 -8 28 -8 27 0 37 3 28 8 -7 5 -20 9 -28 9 -8 0
-21 -4 -28 -9z"/>
<path d="M1430 345 c-19 -23 -24 -115 -8 -145 9 -16 22 -25 38 -25 64 0 68
174 4 183 -11 2 -27 -4 -34 -13z m54 -27 c10 -40 7 -93 -8 -113 -12 -16 -16
-17 -30 -6 -16 14 -23 92 -10 125 9 24 41 19 48 -6z"/>
<path d="M1540 265 c0 -57 4 -95 10 -95 6 0 10 20 10 45 0 41 2 45 25 45 14 0
25 5 25 10 0 6 -11 10 -25 10 -21 0 -25 5 -25 30 0 27 3 30 30 30 17 0 30 5
30 10 0 6 -18 10 -40 10 l-40 0 0 -95z"/>
<path d="M1650 265 c0 -57 4 -95 10 -95 6 0 10 20 10 45 0 41 2 45 25 45 14 0
25 5 25 10 0 6 -11 10 -25 10 -21 0 -25 5 -25 30 0 25 4 30 25 30 14 0 25 5
25 10 0 6 -16 10 -35 10 l-35 0 0 -95z"/>
<path d="M1750 265 c0 -57 4 -95 10 -95 6 0 10 38 10 95 0 57 -4 95 -10 95 -6
0 -10 -38 -10 -95z"/>
<path d="M1822 348 c-7 -7 -12 -41 -12 -83 0 -76 9 -95 46 -95 34 0 39 18 7
22 -28 3 -28 4 -28 73 0 65 2 70 23 73 12 2 22 8 22 13 0 13 -44 11 -58 -3z"/>
<path d="M1910 265 l0 -95 40 0 c22 0 40 5 40 10 0 6 -13 10 -30 10 -28 0 -30
3 -30 35 0 30 3 35 24 35 14 0 28 5 31 10 4 6 -7 10 -24 10 -28 0 -31 3 -31
30 0 27 3 30 30 30 17 0 30 5 30 10 0 6 -18 10 -40 10 l-40 0 0 -95z"/>
<path d="M2080 341 c-5 -11 -10 -47 -10 -80 0 -63 15 -91 49 -91 31 0 42 26
42 95 0 37 -5 73 -12 81 -17 20 -57 17 -69 -5z m63 -38 c18 -62 -17 -144 -44
-102 -10 16 -12 100 -3 124 10 25 37 13 47 -22z"/>
<path d="M2200 265 c0 -57 4 -95 10 -95 6 0 10 20 10 45 0 41 2 45 25 45 14 0
25 5 25 10 0 6 -11 10 -25 10 -21 0 -25 5 -25 30 0 27 3 30 30 30 17 0 30 5
30 10 0 6 -18 10 -40 10 l-40 0 0 -95z"/>
<path d="M2367 278 c-20 -95 -21 -108 -8 -108 5 0 11 12 13 28 5 41 43 43 51
3 4 -17 12 -31 18 -31 6 0 9 6 6 14 -3 8 -13 50 -23 95 -10 45 -22 81 -29 81
-6 0 -19 -37 -28 -82z m43 -10 c0 -10 -7 -18 -15 -18 -17 0 -18 4 -8 38 4 18
8 20 14 10 5 -7 9 -21 9 -30z"/>
<path d="M2480 266 l0 -96 35 0 c19 0 35 5 35 10 0 6 -11 10 -25 10 -25 0 -25
1 -25 79 0 44 -4 83 -10 86 -6 4 -10 -28 -10 -89z"/>
<path d="M2570 291 c0 -83 12 -121 39 -121 47 0 51 7 51 101 0 53 -4 89 -10
89 -6 0 -10 -35 -10 -85 0 -77 -2 -85 -19 -85 -25 0 -31 19 -31 101 0 39 -4
69 -10 69 -6 0 -10 -30 -10 -69z"/>
<path d="M2702 263 c2 -82 2 -87 5 -30 4 68 16 87 27 42 8 -33 22 -32 40 3 15
26 15 26 16 -35 0 -34 5 -65 10 -68 6 -4 10 28 10 89 0 53 -4 96 -9 96 -5 0
-16 -18 -25 -40 -9 -22 -18 -40 -21 -40 -2 0 -14 18 -25 40 -11 22 -23 40 -25
40 -3 0 -4 -44 -3 -97z"/>
<path d="M2840 266 c0 -109 18 -132 22 -28 l3 67 20 -64 c31 -99 45 -91 45 23
0 109 -18 132 -22 29 l-3 -68 -21 65 c-32 96 -44 89 -44 -24z"/>
<path d="M2960 271 c0 -50 5 -93 10 -96 6 -4 10 28 10 89 0 57 -4 96 -10 96
-6 0 -10 -36 -10 -89z"/>
<path d="M3081 269 c-24 -105 -24 -99 -12 -99 5 0 12 14 16 30 5 21 13 30 26
30 14 0 21 -9 26 -30 5 -27 23 -43 23 -21 0 10 -27 134 -36 164 -11 35 -23 15
-43 -74z m39 11 c0 -16 -4 -30 -10 -30 -5 0 -10 14 -10 30 0 17 5 30 10 30 6
0 10 -13 10 -30z"/>
<path d="M3190 265 c0 -57 4 -95 10 -95 6 0 10 20 10 45 0 41 2 45 25 45 14 0
25 5 25 10 0 6 -11 10 -25 10 -21 0 -25 5 -25 30 0 25 4 30 25 30 14 0 25 5
25 10 0 6 -16 10 -35 10 l-35 0 0 -95z"/>
<path d="M3290 271 c0 -50 5 -93 10 -96 6 -4 10 12 10 39 0 42 2 46 24 46 14
0 28 5 31 10 4 6 -7 10 -24 10 -28 0 -31 3 -31 30 0 27 3 30 30 30 17 0 30 5
30 10 0 6 -18 10 -40 10 l-40 0 0 -89z"/>
<path d="M3421 323 c-16 -59 -30 -127 -31 -140 0 -26 18 -12 24 17 4 21 11 30
25 30 13 0 21 -9 26 -30 4 -17 11 -30 16 -30 12 0 12 -6 -12 99 -11 50 -25 91
-30 91 -4 0 -13 -17 -18 -37z m29 -49 c0 -14 -5 -24 -11 -22 -6 2 -10 7 -10
11 1 4 1 16 1 28 0 11 5 17 10 14 6 -3 10 -18 10 -31z"/>
<path d="M3520 265 c0 -57 4 -95 10 -95 6 0 10 38 10 95 0 57 -4 95 -10 95 -6
0 -10 -38 -10 -95z"/>
<path d="M3580 264 c0 -61 4 -94 9 -88 5 5 11 27 13 49 l4 40 22 -47 c13 -27
27 -48 32 -48 14 0 13 6 -10 50 -12 23 -16 40 -10 40 7 0 10 18 8 48 -3 45 -4
47 -35 50 l-33 3 0 -97z m54 61 c8 -22 -4 -45 -23 -45 -11 0 -16 9 -16 30 0
32 28 43 39 15z"/>
<path d="M3707 353 c-18 -18 -6 -63 23 -85 41 -30 39 -71 -3 -76 -32 -4 -27
-22 7 -22 31 0 46 18 46 56 0 25 -7 38 -30 54 -38 27 -40 60 -5 60 14 0 25 5
25 10 0 11 -53 14 -63 3z"/>
<path d="M835 330 c-3 -5 -1 -10 4 -10 6 0 11 5 11 10 0 6 -2 10 -4 10 -3 0
-8 -4 -11 -10z"/>
<path d="M704 319 c12 -8 25 -8 40 -1 18 9 16 11 -19 11 -33 0 -37 -1 -21 -10z"/>
<path d="M648 273 c7 -3 16 -2 19 1 4 3 -2 6 -13 5 -11 0 -14 -3 -6 -6z"/>
<path d="M798 273 c7 -3 16 -2 19 1 4 3 -2 6 -13 5 -11 0 -14 -3 -6 -6z"/>
<path d="M160 140 l0 -70 105 0 105 0 0 -25 0 -25 354 0 355 0 3 23 c3 21 8
22 111 25 l107 3 0 69 0 70 -200 0 -200 0 0 -25 0 -25 -170 0 -170 0 0 25 0
25 -200 0 -200 0 0 -70z m310 50 c-14 -5 -44 -14 -67 -20 -42 -10 -43 -12 -43
-50 l0 -40 -92 0 -93 1 33 29 32 30 -32 30 -33 29 160 0 c103 0 151 -4 135 -9z
m800 5 c0 -3 -12 -17 -27 -31 l-28 -24 35 -30 34 -30 -96 0 -97 0 -3 42 -3 43
-53 11 c-30 7 -56 15 -59 18 -4 3 62 6 145 6 84 0 152 -2 152 -5z m-200 -105
l0 -60 -345 0 -345 0 0 60 0 60 345 0 345 0 0 -60z"/>
<path d="M571 94 c0 -11 3 -14 6 -6 3 7 2 16 -1 19 -3 4 -6 -2 -5 -13z"/>
<path d="M620 99 c0 -6 -7 -8 -16 -5 -9 4 -14 1 -12 -6 7 -20 38 -18 38 3 0
10 -2 19 -5 19 -3 0 -5 -5 -5 -11z"/>
<path d="M640 91 c0 -25 6 -27 13 -6 4 8 2 17 -3 20 -6 4 -10 -3 -10 -14z"/>
<path d="M691 94 c0 -11 3 -14 6 -6 3 7 2 16 -1 19 -3 4 -6 -2 -5 -13z"/>
<path d="M721 94 c0 -11 3 -14 6 -6 3 7 2 16 -1 19 -3 4 -6 -2 -5 -13z"/>
<path d="M742 90 c0 -14 2 -19 5 -12 2 6 2 18 0 25 -3 6 -5 1 -5 -13z"/>
<path d="M785 100 c-3 -5 -1 -10 4 -10 6 0 11 5 11 10 0 6 -2 10 -4 10 -3 0
-8 -4 -11 -10z"/>
<path d="M802 90 c-8 -13 -8 -20 -2 -20 6 0 13 7 17 15 9 24 -1 27 -15 5z"/>
<path d="M891 94 c0 -11 3 -14 6 -6 3 7 2 16 -1 19 -3 4 -6 -2 -5 -13z"/>
<path d="M831 84 c0 -11 3 -14 6 -6 3 7 2 16 -1 19 -3 4 -6 -2 -5 -13z"/>
<path d="M648 203 c7 -3 16 -2 19 1 4 3 -2 6 -13 5 -11 0 -14 -3 -6 -6z"/>
<path d="M788 203 c6 -2 18 -2 25 0 6 3 1 5 -13 5 -14 0 -19 -2 -12 -5z"/>
<path d="M758 183 c7 -3 16 -2 19 1 4 3 -2 6 -13 5 -11 0 -14 -3 -6 -6z"/>
</g>
</svg>
